<?xml version="1.0" encoding="UTF-8"?>
<svg id="Layer_3" data-name="Layer 3" xmlns="http://www.w3.org/2000/svg" viewBox="0 0 651.44 265.92">
  <defs>
    <style>
      .cls-1 {
        fill: none;
        stroke: #fff;
        stroke-miterlimit: 10;
      }

      .cls-2 {
        font-family: BerlinSansFB-Reg, 'Berlin Sans FB';
        font-size: 74.85px;
      }

      .cls-2, .cls-3 {
        fill: #28180f;
      }

      .cls-4 {
        fill: #e22727;
      }
    </style>
  </defs>
  <path class="cls-1" d="M105.03,167.7l.09.09"/>
  <path class="cls-4" d="M111.04,168.6c.16,0,.16-.25,0-.25s-.16.25,0,.25h0Z"/>
  <g>
    <path class="cls-3" d="M206.73,250.02c-4.02-3.41-7.63-7.27-10.76-11.46-3.72-5.02-5.72-11.04-5.72-17.24v-119.48c0-4.12,1.2-8.18,3.49-11.65,3.59-5.45,7.95-10.41,12.99-14.65.57-.5.25-1.43-.51-1.43h-80.63c-8.71,0-15.79,7.08-15.79,15.79v70.58c4.43-12.1,12.8-23.01,24.25-28.92,11.63-6,26.49-6.19,37.45.96,4.57,2.98,8.43,7.24,10.3,12.37,1.87,5.13,1.56,11.15-1.41,15.73-2.92,4.5-8.79,7.2-14.06,6.21-.18-.02-.36-.03-.53-.06.09.01.19,0,.28,0,5.48-1.22,10.61-6.18,11.33-11.75.72-5.58-1.83-11.33-6.08-15.01-4.26-3.68-10.03-5.36-15.65-5.15s-11.08,2.19-15.88,5.11c-9.32,5.67-16.34,15-19.21,25.53-.45,1.67-.86,3.44-1.84,4.82.73.31,1.51.46,2.27.41,2.46-.14,4.66-1.78,6.57-3.58.83-.79,1.66-1.64,2.64-2.16.99-.51,2.2-.65,3.12,0,1.18.82,1.54,2.58,1.68,4.17.34,4.06-.29,8.57-2.91,11.31-3.17,3.32-8.34,3.15-11.34,6.68-1.57,1.84-2.28,4.41-2.94,6.87-1.21,4.51-2.43,9.18-1.92,13.86.21,1.93.72,3.87.38,5.78-.26,1.51-1.04,2.83-1.79,4.11-1.49,2.53-2.98,5.05-4.48,7.57-.07.12-.15.25-.22.37v9.75c0,8.73,7.09,15.83,15.85,15.83h22.1c.95.08,1.91.11,2.88.11h55.61c.74,0,1.09-.93.5-1.41Z"/>
    <path class="cls-3" d="M81.45,75.61H.82c-.76,0-1.09.93-.51,1.43,5.03,4.23,9.4,9.19,12.99,14.65,2.29,3.47,3.49,7.53,3.49,11.65v119.48c0,6.2-2,12.22-5.72,17.24-3.13,4.2-6.73,8.05-10.76,11.46-.59.48-.25,1.41.5,1.41h55.61c.97,0,1.93-.04,2.88-.11h22.1c8.75,0,15.85-7.09,15.85-15.83v-11.82c-1.45-2.46-2.91-4.91-4.36-7.37-.76-1.28-1.53-2.6-1.79-4.11-.33-1.91.17-3.85.38-5.78.52-4.68-.71-9.35-1.92-13.86-.66-2.47-1.37-5.03-2.94-6.87-3-3.52-8.17-3.36-11.34-6.68-2.62-2.74-3.25-7.25-2.91-11.31.14-1.58.5-3.34,1.68-4.17.92-.65,2.13-.51,3.12,0,.98.52,1.81,1.36,2.64,2.16,1.9,1.8,4.11,3.44,6.57,3.58.51.03,1.03-.04,1.54-.17-1.14-1.42-1.57-3.32-2.05-5.1-2.86-10.53-9.89-19.86-19.21-25.53-4.8-2.92-10.26-4.91-15.88-5.11s-11.39,1.48-15.65,5.15-6.8,9.43-6.08,15.01c.72,5.56,5.85,10.52,11.33,11.75.1,0,.19,0,.28,0-.18.03-.35.03-.53.06-5.27.99-11.14-1.71-14.06-6.21-2.97-4.58-3.27-10.6-1.41-15.73,1.87-5.13,5.73-9.38,10.3-12.37,10.96-7.15,25.82-6.96,37.45-.96,11.63,6,20.1,17.17,24.47,29.5.13.37.25.74.37,1.12v-70.75c0-8.72-7.08-15.79-15.79-15.79Z"/>
    <text class="cls-2" transform="translate(222.08 63.06) scale(1.03 1)"><tspan x="0" y="0"> </tspan><tspan x="0" y="62.55">HERITAGE</tspan><tspan x="0" y="125.1" xml:space="preserve">HIMALAYA   </tspan><tspan x="0" y="187.65">TRAILS</tspan></text>
  </g>
</svg>